<svg xmlns="http://www.w3.org/2000/svg" version="1.1" xmlns:xlink="http://www.w3.org/1999/xlink" xmlns:svgjs="http://svgjs.dev/svgjs" width="200" height="727" viewBox="0 0 2000 727"><g transform="matrix(1,0,0,1,-1.2121212121212466,-1.331838521449356)"><svg viewBox="0 0 396 144" data-background-color="#ede1d1" preserveAspectRatio="xMidYMid meet" height="727" width="2000" xmlns="http://www.w3.org/2000/svg" xmlns:xlink="http://www.w3.org/1999/xlink"><g id="tight-bounds" transform="matrix(1,0,0,1,0.2400000000000091,0.2638029533544852)"><svg viewBox="0 0 395.52 141.31301509576375" height="141.31301509576375" width="395.52"><g><svg viewBox="0 0 662.8677454096203 236.83211901690066" height="141.31301509576375" width="395.52"><g transform="matrix(1,0,0,1,267.34774540962025,69.88002575317607)"><svg viewBox="0 0 395.52 97.07206751054852" height="97.07206751054852" width="395.52"><g id="textblocktransform"><svg viewBox="0 0 395.52 97.07206751054852" height="97.07206751054852" width="395.52" id="textblock"><g><svg viewBox="0 0 395.52 97.07206751054852" height="97.07206751054852" width="395.52"><g transform="matrix(1,0,0,1,0,0)"><svg width="395.52" viewBox="0.3 -34.3 142.19 34.9" height="97.07206751054852" data-palette-color="#6a704c"><path d="M8.9-15.95L8.9-15.95 8.45-15.9Q8.45-12.25 8.5-8.58 8.55-4.9 8.75-1.25L8.75-1.25 4.7 0.2 4.3-0.05 4.3-29.75Q4.3-30.15 4.25-30.55 4.2-30.95 4.05-31.3L4.05-31.3Q3.85-31.75 2.98-32.13 2.1-32.5 1.28-32.73 0.45-32.95 0.3-32.95L0.3-32.95 0.4-33.8 0.8-34.15 8.7-34.15 9.05-33.8Q8.8-33 8.63-31.18 8.45-29.35 8.38-26.15 8.3-22.95 8.3-17.9L8.3-17.9 8.7-17.85 23.05-34.15 27.55-34.15 27.5-33.7 12.95-19Q12.85-18.9 12.7-18.73 12.55-18.55 12.55-18.45L12.55-18.45Q12.55-18.25 12.8-18L12.8-18Q14.8-16 17.2-13.6 19.6-11.2 21.98-8.88 24.35-6.55 26.33-4.65 28.3-2.75 29.45-1.75L29.45-1.75 29.4-1.2 25.15 0.35Q21.2-3.85 17.07-7.85 12.95-11.85 8.9-15.95ZM43.55-23.3L43.55-23.3Q44.75-23.3 46.22-22.85 47.7-22.4 48.9-21.55L48.9-21.55 51.55-23.1 51.8-22.85Q51.5-17.4 51.5-11.95L51.5-11.95Q51.5-10.8 51.42-9.2 51.35-7.6 51.45-6.1 51.55-4.6 52-3.6 52.45-2.6 53.45-2.6L53.45-2.6Q54-2.6 54.95-2.9 55.9-3.2 56.7-3.5L56.7-3.5 57.05-2.3Q56.05-1.7 54.9-1.03 53.75-0.35 52.65 0.13 51.55 0.6 50.75 0.6L50.75 0.6Q49.35 0.6 48.75-0.25 48.15-1.1 47.9-2.35L47.9-2.35 47.15-2.55Q45.3-1.35 43.25-0.38 41.2 0.6 39 0.6L39 0.6Q36.9 0.6 35.5-0.3 34.1-1.2 33.25-2.65 32.4-4.1 32.02-5.83 31.65-7.55 31.65-9.25L31.65-9.25Q31.65-11.9 32.32-14.4 33-16.9 34.42-18.93 35.85-20.95 38.1-22.13 40.35-23.3 43.55-23.3ZM42.5-2.7L42.5-2.7Q43.95-2.7 45.32-3.4 46.7-4.1 47.8-4.95L47.8-4.95 47.8-16.45Q47.8-17.45 47.7-18.35 47.6-19.25 47-19.9L47-19.9Q46.35-20.6 45.45-21.08 44.55-21.55 43.6-21.55L43.6-21.55Q40.85-21.55 38.85-19.65L38.85-19.65Q38-18.85 37.12-16.7 36.25-14.55 36.15-10.75L36.15-10.75Q36.1-9.2 36.4-7.63 36.7-6.05 37.55-4.75L37.55-4.75Q38.35-3.5 39.72-3.1 41.1-2.7 42.5-2.7ZM66.8-0.9L66.8-0.9 63.3 0.3 62.55-0.05Q62.59-1 62.67-2.85 62.75-4.7 62.82-6.93 62.9-9.15 62.95-11.28 63-13.4 63-14.9L63-14.9Q63-17.4 62.7-19.03 62.4-20.65 61.15-20.65L61.15-20.65Q60.34-20.65 59.42-20.13 58.5-19.6 57.4-18.9L57.4-18.9 56.55-20Q57.59-20.75 58.8-21.58 60-22.4 61.2-22.98 62.4-23.55 63.3-23.55L63.3-23.55Q65.2-23.55 65.95-22.55 66.7-21.55 66.9-20.15L66.9-20.15 67.3-19.85Q69.4-21.15 71.87-22.3 74.34-23.45 76.75-23.45L76.75-23.45Q77.84-23.45 78.87-23.15 79.9-22.85 80.59-22L80.59-22Q81.09-21.4 81.3-19.83 81.5-18.25 81.55-16.32 81.59-14.4 81.59-12.8L81.59-12.8Q81.59-9.05 81.62-6.9 81.65-4.75 82.12-3.88 82.59-3 84-3L84-3Q84.84-3 85.95-3.65 87.05-4.3 88-5L88-5 88.65-5 89.09-3.95Q87.4-2.25 85.22-0.88 83.05 0.5 81.25 0.5L81.25 0.5Q79.2 0.5 78.42-0.8 77.65-2.1 77.65-3.9L77.65-3.9 77.9-12.45Q77.9-16.2 76.97-18.35 76.05-20.5 73.4-20.5L73.4-20.5Q71.7-20.5 70-19.53 68.3-18.55 66.95-17.45L66.95-17.45Q66.84-14.75 66.75-11.65 66.65-8.55 66.65-5.8L66.65-5.8Q66.65-4.75 66.7-3.58 66.75-2.4 66.8-0.9ZM102.49-23.3L102.49-23.3Q103.69-23.3 105.17-22.85 106.64-22.4 107.84-21.55L107.84-21.55 110.49-23.1 110.74-22.85Q110.44-17.4 110.44-11.95L110.44-11.95Q110.44-10.8 110.37-9.2 110.29-7.6 110.39-6.1 110.49-4.6 110.94-3.6 111.39-2.6 112.39-2.6L112.39-2.6Q112.94-2.6 113.89-2.9 114.84-3.2 115.64-3.5L115.64-3.5 115.99-2.3Q114.99-1.7 113.84-1.03 112.69-0.35 111.59 0.13 110.49 0.6 109.69 0.6L109.69 0.6Q108.29 0.6 107.69-0.25 107.09-1.1 106.84-2.35L106.84-2.35 106.09-2.55Q104.24-1.35 102.19-0.38 100.14 0.6 97.94 0.6L97.94 0.6Q95.84 0.6 94.44-0.3 93.04-1.2 92.19-2.65 91.34-4.1 90.97-5.83 90.59-7.55 90.59-9.25L90.59-9.25Q90.59-11.9 91.27-14.4 91.94-16.9 93.37-18.93 94.79-20.95 97.04-22.13 99.29-23.3 102.49-23.3ZM101.44-2.7L101.44-2.7Q102.89-2.7 104.27-3.4 105.64-4.1 106.74-4.95L106.74-4.95 106.74-16.45Q106.74-17.45 106.64-18.35 106.54-19.25 105.94-19.9L105.94-19.9Q105.29-20.6 104.39-21.08 103.49-21.55 102.54-21.55L102.54-21.55Q99.79-21.55 97.79-19.65L97.79-19.65Q96.94-18.85 96.07-16.7 95.19-14.55 95.09-10.75L95.09-10.75Q95.04-9.2 95.34-7.63 95.64-6.05 96.49-4.75L96.49-4.75Q97.29-3.5 98.67-3.1 100.04-2.7 101.44-2.7ZM123.69-33.95L123.69-13.3 124.34-13.3 131.04-19.45Q132.99-21.25 133.99-22.15 134.99-23.05 135.54-23.48 136.09-23.9 136.69-24.25L136.69-24.25 138.99-22.8 138.99-22.25Q136.19-20.6 133.52-18.7 130.84-16.8 128.34-14.7L128.34-14.7Q128.09-14.5 127.77-14.2 127.44-13.9 127.44-13.7L127.44-13.7Q127.44-13.5 127.59-13.3 127.74-13.1 127.84-12.9L127.84-12.9Q128.94-11.5 130.31-9.9 131.69-8.3 133.09-6.88 134.49-5.45 135.69-4.55 136.89-3.65 137.64-3.65L137.64-3.65Q138.89-3.65 139.81-4.2 140.74-4.75 141.54-5.6L141.54-5.6 142.49-4.6Q141.89-3.8 140.92-2.63 139.94-1.45 138.72-0.55 137.49 0.35 136.14 0.35L136.14 0.35Q135.04 0.35 134.24-0.18 133.44-0.7 132.19-2.1L132.19-2.1Q132.19-2.1 131.47-3.08 130.74-4.05 129.54-5.6 128.34-7.15 126.94-8.85 125.54-10.55 124.19-12.05L124.19-12.05 123.59-11.7 123.59-0.65 120.04 0.35 119.74 0Q119.89-5.9 120.12-11.7 120.34-17.5 120.34-23.4L120.34-23.4Q120.34-25.3 120.24-27 120.14-28.7 119.89-29.7L119.89-29.7Q119.54-30.85 118.57-31.28 117.59-31.7 115.59-31.9L115.59-31.9 115.59-32.95 115.84-33.15 123.84-34.3 123.69-33.95Z" opacity="1" transform="matrix(1,0,0,1,0,0)" fill="#6a704c" class="wordmark-text-0" data-fill-palette-color="primary" id="text-0"></path></svg></g></svg></g></svg></g></svg></g><g><svg viewBox="0 0 244.43135999999998 236.83211901690066" height="236.83211901690066" width="244.43135999999998"><g><svg xmlns="http://www.w3.org/2000/svg" xmlns:xlink="http://www.w3.org/1999/xlink" version="1.1" x="0" y="0" viewBox="19.482 24.246 52.364999999999995 50.73700000000001" enable-background="new 0 0 100 100" xml:space="preserve" height="236.83211901690066" width="244.43135999999998" class="icon-icon-0" data-fill-palette-color="accent" id="icon-0"><g fill="#412e27" data-fill-palette-color="accent"><path d="M58.939 74.983A1.147 1.147 0 1 1 58.939 72.689C60.336 72.689 61.474 71.552 61.474 70.155S60.336 67.621 58.939 67.621H42.113A4.835 4.835 0 0 1 37.279 62.792 4.835 4.835 0 0 1 42.042 57.963C42.324 57.955 42.612 58.032 42.846 58.226 43.332 58.632 43.401 59.353 42.995 59.839L42.99 59.845A1.15 1.15 0 0 1 42.108 60.258C40.711 60.258 39.574 61.395 39.574 62.792S40.711 65.326 42.108 65.326H58.939C61.602 65.326 63.769 67.492 63.769 70.155S61.603 74.983 58.939 74.983" fill="#412e27" data-fill-palette-color="accent"></path></g><g fill="#412e27" data-fill-palette-color="accent"><path d="M58.784 60.251H56.39A1.147 1.147 0 1 1 56.39 57.957H58.785A2.537 2.537 0 0 0 61.319 55.423 2.537 2.537 0 0 0 58.785 52.89 1.147 1.147 0 1 1 58.785 50.596 4.834 4.834 0 0 1 63.614 55.424 4.835 4.835 0 0 1 58.784 60.251" fill="#412e27" data-fill-palette-color="accent"></path></g><g fill="#412e27" data-fill-palette-color="accent"><path d="M67.019 63.933H65.623A1.147 1.147 0 1 1 65.623 61.639H67.019C68.415 61.639 69.552 60.502 69.552 59.105S68.415 56.571 67.019 56.571A1.147 1.147 0 1 1 67.019 54.277C69.681 54.277 71.847 56.443 71.847 59.106S69.681 63.933 67.019 63.933" fill="#412e27" data-fill-palette-color="accent"></path></g><g fill="#412e27" data-fill-palette-color="accent"><path d="M56.133 60.251H37.485C27.558 60.251 19.482 52.175 19.482 42.248S27.558 24.246 37.486 24.246C44.031 24.246 49.948 27.728 53.145 33.396A13.5 13.5 0 0 1 56.132 33.061C62.802 33.061 68.441 37.829 69.539 44.397A1.147 1.147 0 0 1 67.276 44.776 11.26 11.26 0 0 0 56.132 35.356C55.038 35.356 53.946 35.517 52.888 35.835A1.145 1.145 0 0 1 51.532 35.249C48.85 29.878 43.468 26.541 37.486 26.541 28.824 26.541 21.777 33.587 21.777 42.248S28.824 57.956 37.485 57.956H56.132A1.147 1.147 0 0 1 56.133 60.251" fill="#412e27" data-fill-palette-color="accent"></path></g></svg></g></svg></g></svg></g><defs></defs></svg><rect width="395.52" height="141.31301509576375" fill="none" stroke="none" visibility="hidden"></rect></g></svg></g></svg>